<mxfile host="www.draw.io" modified="2020-03-07T12:54:40.700Z" agent="Mozilla/5.0 (Windows NT 10.0; Win64; x64) AppleWebKit/537.36 (KHTML, like Gecko) Chrome/80.0.3987.122 Safari/537.36 OPR/67.0.3575.53" etag="0niGnZZ0-XMyTYQcYcpB" version="12.8.1" type="github">
  <diagram id="kcPS4o3UWwa1z2ZdZbZ6" name="Page-1">
    <mxGraphModel dx="828" dy="452" grid="1" gridSize="10" guides="1" tooltips="1" connect="1" arrows="1" fold="1" page="1" pageScale="1" pageWidth="827" pageHeight="1169" math="0" shadow="0">
      <root>
        <mxCell id="0" />
        <mxCell id="1" parent="0" />
        <mxCell id="IjlpWTzI3O8TZ6MPiaOO-72" style="edgeStyle=orthogonalEdgeStyle;rounded=0;orthogonalLoop=1;jettySize=auto;html=1;entryX=0;entryY=0.25;entryDx=0;entryDy=0;" parent="1" source="IjlpWTzI3O8TZ6MPiaOO-1" target="IjlpWTzI3O8TZ6MPiaOO-18" edge="1">
          <mxGeometry relative="1" as="geometry">
            <Array as="points">
              <mxPoint x="370" y="130" />
              <mxPoint x="370" y="130" />
            </Array>
          </mxGeometry>
        </mxCell>
        <mxCell id="IjlpWTzI3O8TZ6MPiaOO-77" style="edgeStyle=orthogonalEdgeStyle;rounded=0;orthogonalLoop=1;jettySize=auto;html=1;entryX=0;entryY=0.25;entryDx=0;entryDy=0;" parent="1" source="IjlpWTzI3O8TZ6MPiaOO-1" target="IjlpWTzI3O8TZ6MPiaOO-44" edge="1">
          <mxGeometry relative="1" as="geometry">
            <Array as="points">
              <mxPoint x="350" y="369" />
            </Array>
          </mxGeometry>
        </mxCell>
        <mxCell id="IjlpWTzI3O8TZ6MPiaOO-1" value="" style="rounded=0;whiteSpace=wrap;html=1;" parent="1" vertex="1">
          <mxGeometry x="140" y="60" width="190" height="410" as="geometry" />
        </mxCell>
        <mxCell id="IjlpWTzI3O8TZ6MPiaOO-2" value="&lt;font style=&quot;font-size: 23px&quot;&gt;&lt;b&gt;Propiedades&lt;/b&gt;&lt;/font&gt;" style="text;html=1;align=center;verticalAlign=middle;resizable=0;points=[];autosize=1;" parent="1" vertex="1">
          <mxGeometry x="165" y="30" width="150" height="20" as="geometry" />
        </mxCell>
        <mxCell id="IjlpWTzI3O8TZ6MPiaOO-3" value="&lt;font style=&quot;font-size: 22px&quot;&gt;Título&lt;/font&gt;" style="text;html=1;align=center;verticalAlign=middle;resizable=0;points=[];autosize=1;" parent="1" vertex="1">
          <mxGeometry x="200" y="90" width="70" height="20" as="geometry" />
        </mxCell>
        <mxCell id="IjlpWTzI3O8TZ6MPiaOO-4" value="&lt;font style=&quot;font-size: 22px&quot;&gt;Dirección&lt;br&gt;&lt;/font&gt;" style="text;html=1;align=center;verticalAlign=middle;resizable=0;points=[];autosize=1;" parent="1" vertex="1">
          <mxGeometry x="179" y="110" width="110" height="20" as="geometry" />
        </mxCell>
        <mxCell id="IjlpWTzI3O8TZ6MPiaOO-5" value="&lt;font style=&quot;font-size: 22px&quot;&gt;idEstado&lt;br&gt;&lt;/font&gt;" style="text;html=1;align=center;verticalAlign=middle;resizable=0;points=[];autosize=1;" parent="1" vertex="1">
          <mxGeometry x="184" y="130" width="100" height="20" as="geometry" />
        </mxCell>
        <mxCell id="IjlpWTzI3O8TZ6MPiaOO-7" value="&lt;font style=&quot;font-size: 22px&quot;&gt;Precio&lt;/font&gt;" style="text;html=1;align=center;verticalAlign=middle;resizable=0;points=[];autosize=1;" parent="1" vertex="1">
          <mxGeometry x="193" y="191" width="80" height="20" as="geometry" />
        </mxCell>
        <mxCell id="IjlpWTzI3O8TZ6MPiaOO-8" value="&lt;font style=&quot;font-size: 22px&quot;&gt;Sup Total&lt;/font&gt;" style="text;html=1;align=center;verticalAlign=middle;resizable=0;points=[];autosize=1;" parent="1" vertex="1">
          <mxGeometry x="178" y="211" width="110" height="20" as="geometry" />
        </mxCell>
        <mxCell id="IjlpWTzI3O8TZ6MPiaOO-9" value="&lt;font style=&quot;font-size: 22px&quot;&gt;Sup Cubierta&lt;br&gt;&lt;/font&gt;" style="text;html=1;align=center;verticalAlign=middle;resizable=0;points=[];autosize=1;" parent="1" vertex="1">
          <mxGeometry x="164" y="231" width="140" height="20" as="geometry" />
        </mxCell>
        <mxCell id="IjlpWTzI3O8TZ6MPiaOO-10" value="&lt;font style=&quot;font-size: 22px&quot;&gt;Sup Semicubierta&lt;/font&gt;" style="text;html=1;align=center;verticalAlign=middle;resizable=0;points=[];autosize=1;" parent="1" vertex="1">
          <mxGeometry x="139" y="251" width="190" height="20" as="geometry" />
        </mxCell>
        <mxCell id="IjlpWTzI3O8TZ6MPiaOO-12" value="&lt;font style=&quot;font-size: 22px&quot;&gt;Antigüedad&lt;/font&gt;" style="text;html=1;align=center;verticalAlign=middle;resizable=0;points=[];autosize=1;" parent="1" vertex="1">
          <mxGeometry x="169" y="271" width="130" height="20" as="geometry" />
        </mxCell>
        <mxCell id="IjlpWTzI3O8TZ6MPiaOO-13" value="&lt;font style=&quot;font-size: 22px&quot;&gt;Plantas&lt;/font&gt;" style="text;html=1;align=center;verticalAlign=middle;resizable=0;points=[];autosize=1;" parent="1" vertex="1">
          <mxGeometry x="189" y="310" width="90" height="20" as="geometry" />
        </mxCell>
        <mxCell id="IjlpWTzI3O8TZ6MPiaOO-14" value="&lt;font style=&quot;font-size: 22px&quot;&gt;Dormitorios&lt;/font&gt;" style="text;html=1;align=center;verticalAlign=middle;resizable=0;points=[];autosize=1;" parent="1" vertex="1">
          <mxGeometry x="175" y="331" width="130" height="20" as="geometry" />
        </mxCell>
        <mxCell id="IjlpWTzI3O8TZ6MPiaOO-15" value="&lt;font style=&quot;font-size: 22px&quot;&gt;Baños&lt;/font&gt;" style="text;html=1;align=center;verticalAlign=middle;resizable=0;points=[];autosize=1;" parent="1" vertex="1">
          <mxGeometry x="195" y="351" width="80" height="20" as="geometry" />
        </mxCell>
        <mxCell id="IjlpWTzI3O8TZ6MPiaOO-16" value="&lt;font style=&quot;font-size: 22px&quot;&gt;Cochera&lt;/font&gt;" style="text;html=1;align=center;verticalAlign=middle;resizable=0;points=[];autosize=1;" parent="1" vertex="1">
          <mxGeometry x="185" y="371" width="100" height="20" as="geometry" />
        </mxCell>
        <mxCell id="IjlpWTzI3O8TZ6MPiaOO-18" value="" style="rounded=0;whiteSpace=wrap;html=1;" parent="1" vertex="1">
          <mxGeometry x="420" y="110" width="190" height="80" as="geometry" />
        </mxCell>
        <mxCell id="IjlpWTzI3O8TZ6MPiaOO-19" value="&lt;font style=&quot;font-size: 22px&quot;&gt;idEstado&lt;br&gt;&lt;/font&gt;" style="text;html=1;align=center;verticalAlign=middle;resizable=0;points=[];autosize=1;" parent="1" vertex="1">
          <mxGeometry x="465" y="115" width="100" height="20" as="geometry" />
        </mxCell>
        <mxCell id="IjlpWTzI3O8TZ6MPiaOO-21" value="&lt;font style=&quot;font-size: 23px&quot;&gt;&lt;b&gt;Estado&lt;/b&gt;&lt;/font&gt;" style="text;html=1;align=center;verticalAlign=middle;resizable=0;points=[];autosize=1;" parent="1" vertex="1">
          <mxGeometry x="470" y="80" width="90" height="20" as="geometry" />
        </mxCell>
        <mxCell id="IjlpWTzI3O8TZ6MPiaOO-23" value="&lt;font style=&quot;font-size: 22px&quot;&gt;idPropiedades&lt;/font&gt;" style="text;html=1;align=center;verticalAlign=middle;resizable=0;points=[];autosize=1;" parent="1" vertex="1">
          <mxGeometry x="155" y="70" width="160" height="20" as="geometry" />
        </mxCell>
        <mxCell id="IjlpWTzI3O8TZ6MPiaOO-26" value="&lt;font style=&quot;font-size: 22px&quot;&gt;valorEstado&lt;/font&gt;" style="text;html=1;align=center;verticalAlign=middle;resizable=0;points=[];autosize=1;" parent="1" vertex="1">
          <mxGeometry x="450" y="145" width="130" height="20" as="geometry" />
        </mxCell>
        <mxCell id="IjlpWTzI3O8TZ6MPiaOO-31" value="&lt;font style=&quot;font-size: 22px&quot;&gt;Tipo&lt;/font&gt;" style="text;html=1;align=center;verticalAlign=middle;resizable=0;points=[];autosize=1;" parent="1" vertex="1">
          <mxGeometry x="205" y="150" width="60" height="20" as="geometry" />
        </mxCell>
        <mxCell id="IjlpWTzI3O8TZ6MPiaOO-42" value="&lt;font style=&quot;font-size: 22px&quot;&gt;idBarrio&lt;/font&gt;" style="text;html=1;align=center;verticalAlign=middle;resizable=0;points=[];autosize=1;" parent="1" vertex="1">
          <mxGeometry x="194" y="170" width="90" height="20" as="geometry" />
        </mxCell>
        <mxCell id="IjlpWTzI3O8TZ6MPiaOO-43" value="&lt;font style=&quot;font-size: 23px&quot;&gt;&lt;b&gt;Barrios&lt;/b&gt;&lt;/font&gt;" style="text;html=1;align=center;verticalAlign=middle;resizable=0;points=[];autosize=1;" parent="1" vertex="1">
          <mxGeometry x="460" y="320" width="100" height="20" as="geometry" />
        </mxCell>
        <mxCell id="IjlpWTzI3O8TZ6MPiaOO-44" value="" style="rounded=0;whiteSpace=wrap;html=1;" parent="1" vertex="1">
          <mxGeometry x="420" y="351" width="190" height="70" as="geometry" />
        </mxCell>
        <mxCell id="IjlpWTzI3O8TZ6MPiaOO-45" value="&lt;font style=&quot;font-size: 22px&quot;&gt;idBarrio&lt;/font&gt;" style="text;html=1;align=center;verticalAlign=middle;resizable=0;points=[];autosize=1;" parent="1" vertex="1">
          <mxGeometry x="470" y="361" width="90" height="20" as="geometry" />
        </mxCell>
        <mxCell id="IjlpWTzI3O8TZ6MPiaOO-46" value="&lt;font style=&quot;font-size: 22px&quot;&gt;valorBarrio&lt;/font&gt;" style="text;html=1;align=center;verticalAlign=middle;resizable=0;points=[];autosize=1;" parent="1" vertex="1">
          <mxGeometry x="455" y="381" width="120" height="20" as="geometry" />
        </mxCell>
        <mxCell id="IjlpWTzI3O8TZ6MPiaOO-61" value="&lt;font style=&quot;font-size: 22px&quot;&gt;Servicios&lt;br&gt;&lt;/font&gt;" style="text;html=1;align=center;verticalAlign=middle;resizable=0;points=[];autosize=1;" parent="1" vertex="1">
          <mxGeometry x="185" y="291" width="100" height="20" as="geometry" />
        </mxCell>
        <mxCell id="IjlpWTzI3O8TZ6MPiaOO-64" value="&lt;font style=&quot;font-size: 22px&quot;&gt;Adicionales&lt;/font&gt;" style="text;html=1;align=center;verticalAlign=middle;resizable=0;points=[];autosize=1;" parent="1" vertex="1">
          <mxGeometry x="168" y="391" width="130" height="20" as="geometry" />
        </mxCell>
      </root>
    </mxGraphModel>
  </diagram>
</mxfile>
